# xmcd CD database file
# Copyright 1993-1996 (C) Ti Kan
#
# Track frame offsets:
#    182
#    12457
#    23285
#    32690
#    46895
#    57620
#    77482
#    89832
#    99472
#    113977
#    126752
#    138447
#    151822
#    164355
#    176135
#    195842
#    208515
#    217505
#
# Disc length: 3605 seconds
#
# Revision: 0
# Processed by: cddbd v1.4b41PL1 Copyright (c) Steve Scherf et al.
# Submitted via: MyCDplayer 2.1.9  (wjohn@fix.net)
#
DISCID=e40e1312
DTITLE=collection - Blues Masters, Vol 4: Harmonica Classics
DYEAR=1900
DGENRE=
TTITLE0=Juke - Little Walter And His Night Cats
TTITLE1=End and Odds - Jimmy Reed
TTITLE2=Rocket 88 - Jimmy Cotton Blues Quartet
TTITLE3=Help Me - Sonny Boy Williamson
TTITLE4=Messin' w/ The Kid - Jr. Wells Chcgo Blues Ba
TTITLE5=Blues With A Feeling - Paul Butterfield
TTITLE6=Sugar Coated Love - Lazy Lester
TTITLE7=Steady - Jerry McCain
TTITLE8=I'll Be Around - Howlin' Wolf
TTITLE9=I Was Fooled - Billy Boy Arnold
TTITLE10=Take A Little Walk With Me -Big John Wrencher
TTITLE11=Easy - Jimmy and Walter
TTITLE12=Boogie Twist - Snooky Pryor
TTITLE13=Wolf Call Boogie - Hot Shot Love
TTITLE14=Last Night - George "Harmonica" Smith
TTITLE15=I Got Love If You Want It - Slim Harpo
TTITLE16=Cherry Pink& Apple Blossom White-Fab. TBirds
TTITLE17=Christo Redemptor - Charlie Musselwhite
EXTD=
EXTT0=
EXTT1=
EXTT2=
EXTT3=
EXTT4=
EXTT5=
EXTT6=
EXTT7=
EXTT8=
EXTT9=
EXTT10=
EXTT11=
EXTT12=
EXTT13=
EXTT14=
EXTT15=
EXTT16=
EXTT17=
PLAYORDER=
